<mxfile host="app.diagrams.net" modified="2020-12-10T07:08:01.852Z" agent="5.0 (Windows NT 10.0; Win64; x64) AppleWebKit/537.36 (KHTML, like Gecko) Chrome/86.0.4240.198 Safari/537.36" etag="BJWctOVpN1S53kmby1ry" version="14.0.0" type="github">
  <diagram name="Page-1" id="13e1069c-82ec-6db2-03f1-153e76fe0fe0">
    <mxGraphModel dx="1128" dy="1518" grid="1" gridSize="10" guides="1" tooltips="1" connect="1" arrows="1" fold="1" page="1" pageScale="1" pageWidth="1100" pageHeight="850" background="#ffffff" math="0" shadow="0">
      <root>
        <mxCell id="0" />
        <mxCell id="1" parent="0" />
        <mxCell id="7baba1c4bc27f4b0-2" value="网关" style="shape=umlLifeline;perimeter=lifelinePerimeter;whiteSpace=wrap;html=1;container=1;collapsible=0;recursiveResize=0;outlineConnect=0;rounded=1;shadow=0;comic=0;labelBackgroundColor=none;strokeWidth=1;fontFamily=Verdana;fontSize=12;align=center;" parent="1" vertex="1">
          <mxGeometry x="240" y="80" width="100" height="720" as="geometry" />
        </mxCell>
        <mxCell id="7baba1c4bc27f4b0-10" value="" style="html=1;points=[];perimeter=orthogonalPerimeter;rounded=0;shadow=0;comic=0;labelBackgroundColor=none;strokeWidth=1;fontFamily=Verdana;fontSize=12;align=center;" parent="7baba1c4bc27f4b0-2" vertex="1">
          <mxGeometry x="45" y="100" width="10" height="60" as="geometry" />
        </mxCell>
        <mxCell id="QnFFR12Hdzy7jSEyUIlK-3" value="" style="html=1;points=[];perimeter=orthogonalPerimeter;" vertex="1" parent="7baba1c4bc27f4b0-2">
          <mxGeometry x="55" y="130" width="10" height="20" as="geometry" />
        </mxCell>
        <mxCell id="QnFFR12Hdzy7jSEyUIlK-4" value="登录校验" style="edgeStyle=orthogonalEdgeStyle;html=1;align=left;spacingLeft=2;endArrow=block;rounded=1;entryX=1;entryY=0;" edge="1" target="QnFFR12Hdzy7jSEyUIlK-3" parent="7baba1c4bc27f4b0-2">
          <mxGeometry relative="1" as="geometry">
            <mxPoint x="60" y="110" as="sourcePoint" />
            <Array as="points">
              <mxPoint x="85" y="110" />
            </Array>
          </mxGeometry>
        </mxCell>
        <mxCell id="QnFFR12Hdzy7jSEyUIlK-40" value="" style="html=1;points=[];perimeter=orthogonalPerimeter;" vertex="1" parent="7baba1c4bc27f4b0-2">
          <mxGeometry x="45" y="550" width="10" height="150" as="geometry" />
        </mxCell>
        <mxCell id="7baba1c4bc27f4b0-3" value="KeyCloak" style="shape=umlLifeline;perimeter=lifelinePerimeter;whiteSpace=wrap;html=1;container=1;collapsible=0;recursiveResize=0;outlineConnect=0;rounded=1;shadow=0;comic=0;labelBackgroundColor=none;strokeWidth=1;fontFamily=Verdana;fontSize=12;align=center;" parent="1" vertex="1">
          <mxGeometry x="400" y="80" width="100" height="670" as="geometry" />
        </mxCell>
        <mxCell id="7baba1c4bc27f4b0-13" value="" style="html=1;points=[];perimeter=orthogonalPerimeter;rounded=0;shadow=0;comic=0;labelBackgroundColor=none;strokeWidth=1;fontFamily=Verdana;fontSize=12;align=center;" parent="7baba1c4bc27f4b0-3" vertex="1">
          <mxGeometry x="45" y="180" width="10" height="20" as="geometry" />
        </mxCell>
        <mxCell id="QnFFR12Hdzy7jSEyUIlK-15" value="" style="html=1;points=[];perimeter=orthogonalPerimeter;" vertex="1" parent="7baba1c4bc27f4b0-3">
          <mxGeometry x="45" y="234" width="10" height="166" as="geometry" />
        </mxCell>
        <mxCell id="QnFFR12Hdzy7jSEyUIlK-27" value="" style="html=1;points=[];perimeter=orthogonalPerimeter;" vertex="1" parent="7baba1c4bc27f4b0-3">
          <mxGeometry x="55" y="345" width="10" height="40" as="geometry" />
        </mxCell>
        <mxCell id="QnFFR12Hdzy7jSEyUIlK-28" value="保存&lt;span style=&quot;text-align: center&quot;&gt;btp_token&lt;br&gt;到user_session&lt;br&gt;&lt;/span&gt;" style="edgeStyle=orthogonalEdgeStyle;html=1;align=left;spacingLeft=2;endArrow=block;entryX=1.133;entryY=0.6;entryDx=0;entryDy=0;entryPerimeter=0;curved=1;" edge="1" target="QnFFR12Hdzy7jSEyUIlK-27" parent="7baba1c4bc27f4b0-3">
          <mxGeometry relative="1" as="geometry">
            <mxPoint x="60" y="310" as="sourcePoint" />
            <Array as="points">
              <mxPoint x="85" y="310" />
              <mxPoint x="85" y="369" />
            </Array>
          </mxGeometry>
        </mxCell>
        <mxCell id="QnFFR12Hdzy7jSEyUIlK-33" value="" style="html=1;points=[];perimeter=orthogonalPerimeter;" vertex="1" parent="7baba1c4bc27f4b0-3">
          <mxGeometry x="45" y="410" width="10" height="50" as="geometry" />
        </mxCell>
        <mxCell id="7baba1c4bc27f4b0-4" value="基础平台" style="shape=umlLifeline;perimeter=lifelinePerimeter;whiteSpace=wrap;html=1;container=1;collapsible=0;recursiveResize=0;outlineConnect=0;rounded=1;shadow=0;comic=0;labelBackgroundColor=none;strokeWidth=1;fontFamily=Verdana;fontSize=12;align=center;" parent="1" vertex="1">
          <mxGeometry x="540" y="80" width="100" height="700" as="geometry" />
        </mxCell>
        <mxCell id="QnFFR12Hdzy7jSEyUIlK-20" value="" style="html=1;points=[];perimeter=orthogonalPerimeter;" vertex="1" parent="7baba1c4bc27f4b0-4">
          <mxGeometry x="45" y="234" width="10" height="80" as="geometry" />
        </mxCell>
        <mxCell id="QnFFR12Hdzy7jSEyUIlK-49" value="" style="html=1;points=[];perimeter=orthogonalPerimeter;align=left;" vertex="1" parent="7baba1c4bc27f4b0-4">
          <mxGeometry x="45" y="560" width="10" height="80" as="geometry" />
        </mxCell>
        <mxCell id="7baba1c4bc27f4b0-5" value="服务A" style="shape=umlLifeline;perimeter=lifelinePerimeter;whiteSpace=wrap;html=1;container=1;collapsible=0;recursiveResize=0;outlineConnect=0;rounded=1;shadow=0;comic=0;labelBackgroundColor=none;strokeWidth=1;fontFamily=Verdana;fontSize=12;align=center;" parent="1" vertex="1">
          <mxGeometry x="680" y="80" width="100" height="730" as="geometry" />
        </mxCell>
        <mxCell id="QnFFR12Hdzy7jSEyUIlK-57" value="" style="html=1;points=[];perimeter=orthogonalPerimeter;align=left;" vertex="1" parent="7baba1c4bc27f4b0-5">
          <mxGeometry x="45" y="640" width="10" height="60" as="geometry" />
        </mxCell>
        <mxCell id="7baba1c4bc27f4b0-6" value=":Object" style="shape=umlLifeline;perimeter=lifelinePerimeter;whiteSpace=wrap;html=1;container=1;collapsible=0;recursiveResize=0;outlineConnect=0;rounded=1;shadow=0;comic=0;labelBackgroundColor=none;strokeWidth=1;fontFamily=Verdana;fontSize=12;align=center;" parent="1" vertex="1">
          <mxGeometry x="820" y="80" width="100" height="580" as="geometry" />
        </mxCell>
        <mxCell id="7baba1c4bc27f4b0-7" value=":Object" style="shape=umlLifeline;perimeter=lifelinePerimeter;whiteSpace=wrap;html=1;container=1;collapsible=0;recursiveResize=0;outlineConnect=0;rounded=1;shadow=0;comic=0;labelBackgroundColor=none;strokeWidth=1;fontFamily=Verdana;fontSize=12;align=center;" parent="1" vertex="1">
          <mxGeometry x="960" y="80" width="100" height="580" as="geometry" />
        </mxCell>
        <mxCell id="7baba1c4bc27f4b0-8" value="Browser" style="shape=umlLifeline;perimeter=lifelinePerimeter;whiteSpace=wrap;html=1;container=1;collapsible=0;recursiveResize=0;outlineConnect=0;rounded=1;shadow=0;comic=0;labelBackgroundColor=none;strokeWidth=1;fontFamily=Verdana;fontSize=12;align=center;" parent="1" vertex="1">
          <mxGeometry x="100" y="80" width="100" height="730" as="geometry" />
        </mxCell>
        <mxCell id="7baba1c4bc27f4b0-9" value="" style="html=1;points=[];perimeter=orthogonalPerimeter;rounded=0;shadow=0;comic=0;labelBackgroundColor=none;strokeWidth=1;fontFamily=Verdana;fontSize=12;align=center;" parent="7baba1c4bc27f4b0-8" vertex="1">
          <mxGeometry x="45" y="90" width="10" height="110" as="geometry" />
        </mxCell>
        <mxCell id="QnFFR12Hdzy7jSEyUIlK-13" value="" style="html=1;points=[];perimeter=orthogonalPerimeter;" vertex="1" parent="7baba1c4bc27f4b0-8">
          <mxGeometry x="45" y="224" width="10" height="166" as="geometry" />
        </mxCell>
        <mxCell id="QnFFR12Hdzy7jSEyUIlK-32" value="" style="html=1;points=[];perimeter=orthogonalPerimeter;" vertex="1" parent="7baba1c4bc27f4b0-8">
          <mxGeometry x="45" y="410" width="10" height="50" as="geometry" />
        </mxCell>
        <mxCell id="QnFFR12Hdzy7jSEyUIlK-39" value="" style="html=1;points=[];perimeter=orthogonalPerimeter;" vertex="1" parent="7baba1c4bc27f4b0-8">
          <mxGeometry x="45" y="480" width="10" height="230" as="geometry" />
        </mxCell>
        <mxCell id="QnFFR12Hdzy7jSEyUIlK-44" value="" style="html=1;points=[];perimeter=orthogonalPerimeter;" vertex="1" parent="7baba1c4bc27f4b0-8">
          <mxGeometry x="55" y="520" width="10" height="180" as="geometry" />
        </mxCell>
        <mxCell id="QnFFR12Hdzy7jSEyUIlK-45" value="解析KeyCloak Token，&lt;br&gt;获取payload中的&lt;br&gt;btp_token" style="edgeStyle=orthogonalEdgeStyle;html=1;align=left;spacingLeft=2;endArrow=block;entryX=1;entryY=0;curved=1;" edge="1" target="QnFFR12Hdzy7jSEyUIlK-44" parent="7baba1c4bc27f4b0-8">
          <mxGeometry relative="1" as="geometry">
            <mxPoint x="60" y="500" as="sourcePoint" />
            <Array as="points">
              <mxPoint x="85" y="500" />
            </Array>
          </mxGeometry>
        </mxCell>
        <mxCell id="7baba1c4bc27f4b0-11" value="访问资源" style="html=1;verticalAlign=bottom;endArrow=block;entryX=0;entryY=0;labelBackgroundColor=none;fontFamily=Verdana;fontSize=12;edgeStyle=elbowEdgeStyle;elbow=vertical;" parent="1" source="7baba1c4bc27f4b0-9" target="7baba1c4bc27f4b0-10" edge="1">
          <mxGeometry relative="1" as="geometry">
            <mxPoint x="220" y="190" as="sourcePoint" />
          </mxGeometry>
        </mxCell>
        <mxCell id="QnFFR12Hdzy7jSEyUIlK-1" value="用户" style="shape=umlActor;verticalLabelPosition=bottom;verticalAlign=top;html=1;" vertex="1" parent="1">
          <mxGeometry x="135" y="-10" width="30" height="60" as="geometry" />
        </mxCell>
        <mxCell id="QnFFR12Hdzy7jSEyUIlK-5" style="edgeStyle=orthogonalEdgeStyle;rounded=0;orthogonalLoop=1;jettySize=auto;html=1;dashed=1;" edge="1" parent="1" source="7baba1c4bc27f4b0-10">
          <mxGeometry relative="1" as="geometry">
            <mxPoint x="156" y="210" as="targetPoint" />
          </mxGeometry>
        </mxCell>
        <mxCell id="QnFFR12Hdzy7jSEyUIlK-6" value="未登录返回401" style="edgeLabel;html=1;align=center;verticalAlign=middle;resizable=0;points=[];" vertex="1" connectable="0" parent="QnFFR12Hdzy7jSEyUIlK-5">
          <mxGeometry x="-0.2558" y="2" relative="1" as="geometry">
            <mxPoint x="-17" y="-2" as="offset" />
          </mxGeometry>
        </mxCell>
        <mxCell id="QnFFR12Hdzy7jSEyUIlK-10" style="edgeStyle=orthogonalEdgeStyle;rounded=0;orthogonalLoop=1;jettySize=auto;html=1;" edge="1" parent="1" source="7baba1c4bc27f4b0-9" target="7baba1c4bc27f4b0-13">
          <mxGeometry relative="1" as="geometry">
            <Array as="points">
              <mxPoint x="370" y="270" />
              <mxPoint x="370" y="270" />
            </Array>
          </mxGeometry>
        </mxCell>
        <mxCell id="QnFFR12Hdzy7jSEyUIlK-11" value="跳转到KeyCloak登录页面" style="edgeLabel;html=1;align=center;verticalAlign=middle;resizable=0;points=[];" vertex="1" connectable="0" parent="QnFFR12Hdzy7jSEyUIlK-10">
          <mxGeometry x="0.3034" y="-3" relative="1" as="geometry">
            <mxPoint x="-39" y="-3" as="offset" />
          </mxGeometry>
        </mxCell>
        <mxCell id="QnFFR12Hdzy7jSEyUIlK-21" style="edgeStyle=orthogonalEdgeStyle;rounded=0;orthogonalLoop=1;jettySize=auto;html=1;entryX=0.1;entryY=0.213;entryDx=0;entryDy=0;entryPerimeter=0;" edge="1" parent="1" source="QnFFR12Hdzy7jSEyUIlK-15" target="QnFFR12Hdzy7jSEyUIlK-20">
          <mxGeometry relative="1" as="geometry">
            <mxPoint x="580" y="330" as="targetPoint" />
            <Array as="points">
              <mxPoint x="480" y="331" />
              <mxPoint x="480" y="331" />
            </Array>
          </mxGeometry>
        </mxCell>
        <mxCell id="QnFFR12Hdzy7jSEyUIlK-22" value="loginByPwd" style="edgeLabel;html=1;align=center;verticalAlign=middle;resizable=0;points=[];" vertex="1" connectable="0" parent="QnFFR12Hdzy7jSEyUIlK-21">
          <mxGeometry x="0.1603" y="-2" relative="1" as="geometry">
            <mxPoint x="-21" y="-3.02" as="offset" />
          </mxGeometry>
        </mxCell>
        <mxCell id="QnFFR12Hdzy7jSEyUIlK-23" style="edgeStyle=orthogonalEdgeStyle;curved=1;orthogonalLoop=1;jettySize=auto;html=1;dashed=1;" edge="1" parent="1" source="QnFFR12Hdzy7jSEyUIlK-20" target="QnFFR12Hdzy7jSEyUIlK-15">
          <mxGeometry relative="1" as="geometry">
            <Array as="points">
              <mxPoint x="540" y="370" />
              <mxPoint x="540" y="370" />
            </Array>
          </mxGeometry>
        </mxCell>
        <mxCell id="QnFFR12Hdzy7jSEyUIlK-24" value="return：btp_token" style="edgeLabel;html=1;align=center;verticalAlign=middle;resizable=0;points=[];" vertex="1" connectable="0" parent="QnFFR12Hdzy7jSEyUIlK-23">
          <mxGeometry x="-0.2923" y="-4" relative="1" as="geometry">
            <mxPoint x="-14" y="3" as="offset" />
          </mxGeometry>
        </mxCell>
        <mxCell id="QnFFR12Hdzy7jSEyUIlK-25" style="edgeStyle=orthogonalEdgeStyle;orthogonalLoop=1;jettySize=auto;html=1;rounded=0;" edge="1" parent="1" source="QnFFR12Hdzy7jSEyUIlK-13">
          <mxGeometry relative="1" as="geometry">
            <mxPoint x="445" y="324" as="targetPoint" />
            <Array as="points">
              <mxPoint x="440" y="325" />
            </Array>
          </mxGeometry>
        </mxCell>
        <mxCell id="QnFFR12Hdzy7jSEyUIlK-26" value="发起登录请求" style="edgeLabel;html=1;align=center;verticalAlign=middle;resizable=0;points=[];" vertex="1" connectable="0" parent="QnFFR12Hdzy7jSEyUIlK-25">
          <mxGeometry x="0.1729" y="1" relative="1" as="geometry">
            <mxPoint x="-28" as="offset" />
          </mxGeometry>
        </mxCell>
        <mxCell id="QnFFR12Hdzy7jSEyUIlK-30" style="edgeStyle=orthogonalEdgeStyle;orthogonalLoop=1;jettySize=auto;html=1;entryX=1;entryY=0.936;entryDx=0;entryDy=0;entryPerimeter=0;exitX=1.12;exitY=0.878;exitDx=0;exitDy=0;exitPerimeter=0;rounded=0;dashed=1;" edge="1" parent="1" source="QnFFR12Hdzy7jSEyUIlK-15" target="QnFFR12Hdzy7jSEyUIlK-13">
          <mxGeometry relative="1" as="geometry">
            <mxPoint x="160" y="445" as="targetPoint" />
          </mxGeometry>
        </mxCell>
        <mxCell id="QnFFR12Hdzy7jSEyUIlK-31" value="重定向到原URL" style="edgeLabel;html=1;align=center;verticalAlign=middle;resizable=0;points=[];" vertex="1" connectable="0" parent="QnFFR12Hdzy7jSEyUIlK-30">
          <mxGeometry x="-0.0081" relative="1" as="geometry">
            <mxPoint as="offset" />
          </mxGeometry>
        </mxCell>
        <mxCell id="QnFFR12Hdzy7jSEyUIlK-34" value="获取KeyCloak Token" style="edgeStyle=orthogonalEdgeStyle;rounded=0;orthogonalLoop=1;jettySize=auto;html=1;" edge="1" parent="1" source="QnFFR12Hdzy7jSEyUIlK-32" target="QnFFR12Hdzy7jSEyUIlK-33">
          <mxGeometry relative="1" as="geometry">
            <Array as="points">
              <mxPoint x="240" y="500" />
              <mxPoint x="240" y="500" />
            </Array>
          </mxGeometry>
        </mxCell>
        <mxCell id="QnFFR12Hdzy7jSEyUIlK-37" style="edgeStyle=orthogonalEdgeStyle;rounded=0;orthogonalLoop=1;jettySize=auto;html=1;dashed=1;" edge="1" parent="1" source="QnFFR12Hdzy7jSEyUIlK-33" target="QnFFR12Hdzy7jSEyUIlK-32">
          <mxGeometry relative="1" as="geometry">
            <Array as="points">
              <mxPoint x="380" y="530" />
              <mxPoint x="380" y="530" />
            </Array>
          </mxGeometry>
        </mxCell>
        <mxCell id="QnFFR12Hdzy7jSEyUIlK-38" value="return：KeyCloak Token（JWT）" style="edgeLabel;html=1;align=center;verticalAlign=middle;resizable=0;points=[];" vertex="1" connectable="0" parent="QnFFR12Hdzy7jSEyUIlK-37">
          <mxGeometry x="-0.2034" y="3" relative="1" as="geometry">
            <mxPoint x="-26" as="offset" />
          </mxGeometry>
        </mxCell>
        <mxCell id="QnFFR12Hdzy7jSEyUIlK-46" style="edgeStyle=orthogonalEdgeStyle;rounded=0;orthogonalLoop=1;jettySize=auto;html=1;" edge="1" parent="1" source="QnFFR12Hdzy7jSEyUIlK-44" target="QnFFR12Hdzy7jSEyUIlK-40">
          <mxGeometry relative="1" as="geometry">
            <Array as="points">
              <mxPoint x="250" y="640" />
              <mxPoint x="250" y="640" />
            </Array>
          </mxGeometry>
        </mxCell>
        <mxCell id="QnFFR12Hdzy7jSEyUIlK-48" value="&lt;span style=&quot;text-align: center&quot;&gt;访问资源&lt;/span&gt;&lt;br&gt;请求头：&lt;br&gt;&amp;nbsp; Authorization：&lt;br&gt;&amp;nbsp; btp_token" style="text;html=1;align=left;verticalAlign=middle;resizable=0;points=[];autosize=1;" vertex="1" parent="1">
          <mxGeometry x="180" y="622" width="100" height="60" as="geometry" />
        </mxCell>
        <mxCell id="QnFFR12Hdzy7jSEyUIlK-52" style="edgeStyle=orthogonalEdgeStyle;rounded=0;orthogonalLoop=1;jettySize=auto;html=1;entryX=-0.012;entryY=0.126;entryDx=0;entryDy=0;entryPerimeter=0;" edge="1" parent="1" target="QnFFR12Hdzy7jSEyUIlK-49">
          <mxGeometry relative="1" as="geometry">
            <mxPoint x="295" y="650.2857142857142" as="sourcePoint" />
            <mxPoint x="582" y="650.3199999999999" as="targetPoint" />
            <Array as="points">
              <mxPoint x="560" y="650" />
            </Array>
          </mxGeometry>
        </mxCell>
        <mxCell id="QnFFR12Hdzy7jSEyUIlK-53" value="获取用户信息&lt;br&gt;(请求头：&lt;span style=&quot;font-size: 12px ; background-color: rgb(248 , 249 , 250)&quot;&gt;Authorization：&lt;/span&gt;&lt;span style=&quot;font-size: 12px ; background-color: rgb(248 , 249 , 250)&quot;&gt;btp_token&lt;/span&gt;)" style="edgeLabel;html=1;align=left;verticalAlign=middle;resizable=0;points=[];" vertex="1" connectable="0" parent="QnFFR12Hdzy7jSEyUIlK-52">
          <mxGeometry x="-0.1" y="-1" relative="1" as="geometry">
            <mxPoint x="-85.48" y="-6.289999999999999" as="offset" />
          </mxGeometry>
        </mxCell>
        <mxCell id="QnFFR12Hdzy7jSEyUIlK-54" style="edgeStyle=orthogonalEdgeStyle;rounded=0;orthogonalLoop=1;jettySize=auto;html=1;dashed=1;" edge="1" parent="1" source="QnFFR12Hdzy7jSEyUIlK-49" target="QnFFR12Hdzy7jSEyUIlK-40">
          <mxGeometry relative="1" as="geometry">
            <Array as="points">
              <mxPoint x="430" y="690" />
              <mxPoint x="430" y="690" />
            </Array>
          </mxGeometry>
        </mxCell>
        <mxCell id="QnFFR12Hdzy7jSEyUIlK-55" value="return：userInfo" style="edgeLabel;html=1;align=center;verticalAlign=middle;resizable=0;points=[];" vertex="1" connectable="0" parent="QnFFR12Hdzy7jSEyUIlK-54">
          <mxGeometry x="0.2414" y="1" relative="1" as="geometry">
            <mxPoint as="offset" />
          </mxGeometry>
        </mxCell>
        <mxCell id="QnFFR12Hdzy7jSEyUIlK-58" style="edgeStyle=orthogonalEdgeStyle;rounded=0;orthogonalLoop=1;jettySize=auto;html=1;" edge="1" parent="1" source="QnFFR12Hdzy7jSEyUIlK-40" target="QnFFR12Hdzy7jSEyUIlK-57">
          <mxGeometry relative="1" as="geometry">
            <Array as="points">
              <mxPoint x="400" y="730" />
              <mxPoint x="400" y="730" />
            </Array>
          </mxGeometry>
        </mxCell>
        <mxCell id="QnFFR12Hdzy7jSEyUIlK-59" value="请求接口，并在请求头中带上用户信息" style="edgeLabel;html=1;align=center;verticalAlign=middle;resizable=0;points=[];" vertex="1" connectable="0" parent="QnFFR12Hdzy7jSEyUIlK-58">
          <mxGeometry x="0.1566" y="-3" relative="1" as="geometry">
            <mxPoint x="-33.33" as="offset" />
          </mxGeometry>
        </mxCell>
        <mxCell id="QnFFR12Hdzy7jSEyUIlK-60" style="edgeStyle=orthogonalEdgeStyle;rounded=0;orthogonalLoop=1;jettySize=auto;html=1;entryX=1.5;entryY=0.933;entryDx=0;entryDy=0;entryPerimeter=0;" edge="1" parent="1" source="QnFFR12Hdzy7jSEyUIlK-57" target="QnFFR12Hdzy7jSEyUIlK-40">
          <mxGeometry relative="1" as="geometry">
            <Array as="points">
              <mxPoint x="620" y="770" />
              <mxPoint x="620" y="770" />
            </Array>
          </mxGeometry>
        </mxCell>
        <mxCell id="QnFFR12Hdzy7jSEyUIlK-61" value="返回接口数据" style="edgeLabel;html=1;align=center;verticalAlign=middle;resizable=0;points=[];" vertex="1" connectable="0" parent="QnFFR12Hdzy7jSEyUIlK-60">
          <mxGeometry x="-0.1663" y="2" relative="1" as="geometry">
            <mxPoint as="offset" />
          </mxGeometry>
        </mxCell>
        <mxCell id="QnFFR12Hdzy7jSEyUIlK-63" style="edgeStyle=orthogonalEdgeStyle;rounded=0;orthogonalLoop=1;jettySize=auto;html=1;entryX=1.5;entryY=0.944;entryDx=0;entryDy=0;entryPerimeter=0;" edge="1" parent="1" source="QnFFR12Hdzy7jSEyUIlK-40" target="QnFFR12Hdzy7jSEyUIlK-44">
          <mxGeometry relative="1" as="geometry">
            <Array as="points">
              <mxPoint x="250" y="770" />
              <mxPoint x="250" y="770" />
            </Array>
          </mxGeometry>
        </mxCell>
      </root>
    </mxGraphModel>
  </diagram>
</mxfile>
